<?xml version="1.0" encoding="UTF-8" standalone="no"?>
<svg width="120px" height="30px" viewBox="0 0 120 30" version="1.1" xmlns="http://www.w3.org/2000/svg" xmlns:xlink="http://www.w3.org/1999/xlink">
    <!-- Generator: Sketch 39.1 (31720) - http://www.bohemiancoding.com/sketch -->
    <title>logo</title>
    <desc>Created with Sketch.</desc>
    <defs></defs>
    <g id="Page-1" stroke="none" stroke-width="1" fill="none" fill-rule="evenodd">
        <g id="landing" transform="translate(-150.000000, -77.000000)" fill="#CECECE">
            <path d="M150,93.7858049 C150,100.851144 154.815231,106.071394 162.375593,106.071394 C168.225874,106.071394 171.376025,102.561226 172.276068,100.896146 L168.180872,97.790997 C167.505839,98.7810444 165.660751,100.671135 162.465598,100.671135 C159.000432,100.671135 156.480311,98.4210272 156.345304,95.2708761 L172.906098,95.2708761 C172.951101,94.8208545 172.951101,94.370833 172.951101,93.9208114 C172.951101,86.2254424 168.810902,81.3652093 161.520552,81.3652093 C154.815231,81.3652093 150,86.6754639 150,93.7858049 L150,93.7858049 Z M156.525313,91.2206819 C156.795326,88.5205524 158.685416,86.4504532 161.610557,86.4504532 C164.445693,86.4504532 166.515792,88.3405438 166.650798,91.2206819 L156.525313,91.2206819 Z M189.352607,105.486366 L196.102931,105.486366 L187.822534,93.4707898 L195.742913,81.9502374 L188.767579,81.9502374 L184.357367,89.1055805 L179.947156,81.9502374 L172.971821,81.9502374 L180.892201,93.4707898 L172.611804,105.486366 L179.317126,105.486366 L184.357367,98.1060121 L189.352607,105.486366 Z M197.158701,105.486366 L203.368999,105.486366 L203.368999,81.9502374 L197.158701,81.9502374 L197.158701,105.486366 Z M266.354825,106.501336 C268.424924,106.501336 270,104.971262 270,102.946165 C270,100.921068 268.424924,99.3909948 266.354825,99.3909948 C264.329728,99.3909948 262.754653,100.921068 262.754653,102.946165 C262.754653,104.971262 264.329728,106.501336 266.354825,106.501336 Z M213.875223,106.071394 C218.960466,106.071394 222.920656,103.191256 222.920656,98.6010358 C222.920656,90.1856323 211.760121,91.9857186 211.760121,88.2505395 C211.760121,87.0804834 212.750169,86.3604488 214.190238,86.3604488 C216.395343,86.3604488 217.700406,87.7105136 218.420441,88.6105567 L222.515637,85.55041 C221.390583,83.7053215 218.915464,81.3652093 214.460251,81.3652093 C209.64502,81.3652093 205.909841,83.9753345 205.909841,88.3405438 C205.909841,96.7109452 217.025374,95.3158783 217.025374,98.9160509 C217.025374,100.266116 215.90032,101.031152 214.145236,101.031152 C211.490108,101.031152 209.915033,99.8160941 208.744977,98.4660293 L205.099802,101.706185 C206.359862,103.731282 209.24,106.071394 213.875223,106.071394 L213.875223,106.071394 Z M226.515973,81.9502374 L223.995852,81.9502374 L223.995852,86.9904791 L226.470971,86.9904791 L226.470971,96.2609236 C226.470971,102.65123 228.946089,105.801381 234.571359,105.801381 C236.281441,105.801381 237.226486,105.57637 237.226486,105.57637 L237.226486,100.266116 C236.731463,100.311118 236.506452,100.311118 236.101432,100.311118 C233.716318,100.311118 232.636266,99.5910833 232.636266,96.080915 L232.636266,86.9904791 L237.046478,86.9904791 L237.046478,81.9502374 L232.636266,81.9502374 L232.636266,77 L226.515973,77 L226.515973,81.9502374 Z M250.99938,106.108293 C257.844958,106.108293 263.394395,100.558856 263.394395,93.7132783 C263.394395,86.8677005 257.844958,81.3182633 250.99938,81.3182633 C244.153803,81.3182633 238.604365,86.8677005 238.604365,93.7132783 C238.604365,100.558856 244.153803,106.108293 250.99938,106.108293 Z M251.079348,100.830416 C254.96587,100.830416 258.116518,97.6797677 258.116518,93.7932461 C258.116518,89.9067246 254.96587,86.7560763 251.079348,86.7560763 C247.192827,86.7560763 244.042178,89.9067246 244.042178,93.7932461 C244.042178,97.6797677 247.192827,100.830416 251.079348,100.830416 Z" id="logo"></path>
        </g>
    </g>
</svg>