<?xml version="1.0" encoding="UTF-8" standalone="no"?>
<svg
   xmlns:dc="http://purl.org/dc/elements/1.1/"
   xmlns:cc="http://creativecommons.org/ns#"
   xmlns:rdf="http://www.w3.org/1999/02/22-rdf-syntax-ns#"
   xmlns:svg="http://www.w3.org/2000/svg"
   xmlns="http://www.w3.org/2000/svg"
   xmlns:sodipodi="http://sodipodi.sourceforge.net/DTD/sodipodi-0.dtd"
   xmlns:inkscape="http://www.inkscape.org/namespaces/inkscape"
   width="42.065632"
   height="62.398155"
   viewBox="0 0 6.3947753 9.4845195"
   preserveAspectRatio="xMidYMid"
   version="1.1"
   id="svg949"
   sodipodi:docname="foundation.svg"
   inkscape:version="0.92.4 (f8dce91, 2019-08-02)">
  <metadata
     id="metadata955">
    <rdf:RDF>
      <cc:Work
         rdf:about="">
        <dc:format>image/svg+xml</dc:format>
        <dc:type
           rdf:resource="http://purl.org/dc/dcmitype/StillImage" />
        <dc:title></dc:title>
      </cc:Work>
    </rdf:RDF>
  </metadata>
  <defs
     id="defs953" />
  <sodipodi:namedview
     pagecolor="#ffffff"
     bordercolor="#666666"
     borderopacity="1"
     objecttolerance="10"
     gridtolerance="10"
     guidetolerance="10"
     inkscape:pageopacity="0"
     inkscape:pageshadow="2"
     inkscape:window-width="1867"
     inkscape:window-height="1056"
     id="namedview951"
     showgrid="false"
     inkscape:zoom="2"
     inkscape:cx="120.23677"
     inkscape:cy="-59.570811"
     inkscape:window-x="53"
     inkscape:window-y="24"
     inkscape:window-maximized="1"
     inkscape:current-layer="svg949" />
  <path
     d="m 6.3947755,9.0950835 c 0,0.214425 -1.4315,0.38825 -3.197375,0.38825 C 1.4315005,9.4833585 0,9.3095085 0,9.0951085 c 0,-0.21445 1.6792505,-0.38825 3.1974005,-0.38825 1.807149,0 3.197375,0.1738 3.197375,0.38825"
     id="path905"
     inkscape:connector-curvature="0"
     style="fill:#1a4658;stroke-width:0.025" />
  <path
     d="m 6.1968745,6.2936085 c -0.09897,0 -0.205549,-0.0457 -0.2817,-0.395875 -0.07615,-0.3502 -0.190324,-0.708 -0.190324,-0.708 0.121824,0 0.190324,-0.0533 0.190324,-0.0533 -0.08375,-0.0381 -0.266475,-0.1675 -0.38825,-0.32735 -0.1218,-0.159875 -0.433949,-0.41875 -0.433949,-0.41875 v -0.517625 c 0,-0.350225 0.2246,-0.62425 0.2246,-0.62425 -0.15225,0 -0.2246,0.137 -0.2246,0.137 v -0.738425 c 0,-0.73085 0.369199,-1.058175 0.369199,-1.058175 -0.114174,-0.0076 -0.1903,0.04567 -0.1903,0.04567 0.0533,-0.5405 0.218875,-0.70037499 0.218875,-0.70037499 -0.608999,-0.159875 -0.94875,0.19794999 -0.94875,0.19794999 -0.0685,-0.32734999 0.199375,-0.51774999 0.199375,-0.51774999 -0.3121,-0.0685 -0.570249,0.02285 -0.570249,0.02285 0,-0.4796 0.190649,-0.639575 0.190649,-0.639575 -0.9516,0 -1.4919,0.7155 -1.4919,0.7155 -0.03805,-0.3045 0.04575,-0.571225 0.04575,-0.571225 -0.921125,0.38825 -1.164674,1.24807499 -1.164674,1.24807499 -0.0609,-0.144625 -0.0685,-0.47299999 -0.0685,-0.47299999 0,0 -0.380675,0.63762499 -0.449175,1.07912499 -0.0685,0.44155 0.0609,1.7091 0.0609,1.7091 0,0 -0.06088,-0.0761 -0.190301,-0.09133 0,0 0.137001,0.15225 0.137001,0.494825 0,0 -0.05328,-0.04567 -0.144626,-0.02283 0,0 0.144626,0.1294 0.159875,0.350175 0,0 -0.1675,0.1142 -0.25885,0.228375 0,0 -0.14465,0.0076 -0.220775,0.03045 0,0 0.121825,0.0685 0.14465,0.129425 0,0 -0.3578,0.365425 -0.5404995,0.6623 0,0 0.1598745,-0.09895 0.2740495,-0.0685 0,0 -0.2512495,0.3045 -0.3349745,0.80695 0,0 0.1217995,-0.06088 0.1750995,-0.03043 0,0 -0.1522495,0.319725 -0.1598745,0.654675 l -0.167475,0.099 0.129425,0.09135 c 0,0 -0.098975,0.411075 -0.121825,0.647075 0,0 0.076125,-0.07613 0.137025,-0.09895 0,0 0.08375,0.1979 0.1979495,0.350175 0.1142,0.15225 0.37305,0.281675 0.5253,0.281675 l 0.286175,-0.01115 c -0.0355,0.15315 -0.1055,0.283 -0.2531,0.289825 l -0.01638,0.02625 a 0.17175,0.17175 0 0 0 -0.0091,-5e-4 c -0.0029,0.0447 -0.09317,0.05275 -0.117999,0.08375 -0.07545,0.09413 -0.132976,0.22345 -0.171301,0.33875 -0.02807,0.0845 -0.0148,0.0845 -0.03425,0.1713 -0.0064,0.0284 -0.03585,0.05875 -0.04568,0.08752 0.0822,-0.0276 0.31,-0.04605 0.43,-0.05485 l 0.002,0.1062 c 0,0 0.0198,0.0184 0.05255,0.03175 0.0013,-2.5e-4 0.0023,-5e-4 0.0036,-5e-4 0.01112,10e-4 0.02187,0.0025 0.0324,0.0052 0.18005,-0.01613 0.305425,0.01425 0.51415,-0.0031 0.0406,-0.0049 0.07868,-0.01053 0.114225,-0.03075 0.0101,-0.03022 0.01148,-0.03207 0.01623,-0.07108 0.001,-0.0069 0.001,-0.0141 0.0027,-0.02257 0.0032,-5e-4 0.0064,-10e-4 0.0096,-0.0015 a 0.024,0.024 0 0 1 0.0075,-10e-4 c 0.001,-2.5e-4 0.0017,-7.5e-4 0.0026,-7.5e-4 l 0.0099,-7.5e-4 a 0.010375,0.010375 0 0 1 0.0064,-5e-4 c 0.0378,-0.0033 0.09843,-0.0065 0.1362,-0.0086 0.12275,-2e-4 0.2843,0.01395 0.2843,0.01395 0.01,-0.137625 0.01998,-0.351125 0.242651,-0.9735 l 0.0552,-0.03425 c 0,0 0.683925,0.241 1.318526,-0.0097 0.05022,0.1236 0.212699,0.53905 0.238249,0.80095 0.02185,0.0307 0.01943,0.06965 0.02015,0.110925 5e-4,0.03493 0.0036,0.06988 0.0045,0.1047 0.02283,-0.0031 0.105251,-0.0132 0.20925,-0.01305 0.03775,0.002 0.0984,0.0053 0.1362,0.0086 a 0.010375,0.010375 0 0 1 0.0064,5e-4 l 0.0099,7.5e-4 c 10e-4,10e-5 0.0018,5e-4 0.0026,7.5e-4 a 0.024175,0.024175 0 0 1 0.0075,10e-4 c 0.0031,5e-4 0.0064,10e-4 0.0096,0.0015 0.0017,0.0084 0.0017,0.0156 0.0027,0.02255 0.0047,0.039 0.0061,0.04085 0.0162,0.07105 0.0033,0.0017 0.0066,0.0035 0.0099,0.0051 0.11365,-0.01442 0.2288,-0.01705 0.343126,-0.01165 0.08995,0.0042 0.17835,0.02115 0.26685,0.03725 0,7.5e-4 1e-4,0.0018 1e-4,0.0025 0.0089,0.001 0.01763,0.0015 0.02635,0.0023 0.0475,0.0085 0.0951,0.0164 0.143025,0.02158 0.001,-0.05995 5e-4,-0.112375 -7.5e-4,-0.158425 0.09535,0.0046 0.233375,0.02355 0.29125,0.032 0.023,0.0055 0.04162,0.0089 0.0612,0.0131 0.0027,7.5e-4 0.0055,0.0015 0.0079,0.0025 l -2.49e-4,-7.5e-4 c 0.01965,0.0044 0.04085,0.01 0.06883,0.01973 -0.0043,-0.0515 -0.0039,-0.05045 -0.0107,-0.115 -0.0053,-0.04995 -0.04105,-0.20165 -0.10805,-0.26425 0,0 0.073,0.03158 0.09527,0.04413 -0.07195,-0.0975 -0.106925,-0.23685 -0.333,-0.33295 0,0 0.04128,-0.0195 0.07903,-0.0244 -0.03945,-0.0243 -0.06958,-0.03385 -0.109501,-0.03097 0.01355,-0.03852 0.07325,-0.13575 0.123351,-0.148225 0,0 -0.03075,-0.02138 -0.081,-0.0049 a 0.48175,0.48175 0 0 0 -0.0545,0.03272 c -0.0067,0.0047 -0.01638,-1.75e-4 -0.01835,-0.0075 -0.0158,-0.05845 -0.02608,-0.117825 -0.0354,-0.177475 0.455575,-0.0165 0.519475,-0.250225 0.519475,-0.250225 0.03805,0.03047 0.03805,0.09897 0.03805,0.09897 0.1979,-0.25885 0.175075,-0.5177 0.175075,-0.5177 0.0457,0.0076 0.08375,0.03807 0.08375,0.03807 0.02285,-0.395875 -0.09895,-1.073425 -0.09895,-1.073425 0.0609,0.03045 0.09895,-0.0076 0.09895,-0.0076 -0.0685,-0.03042 -0.0761,-0.106575 -0.0761,-0.106575 0.09897,0.0076 0.1142,-0.08375 0.1142,-0.08375"
     id="path907"
     inkscape:connector-curvature="0"
     style="fill:#edf7fa;stroke-width:0.025" />
  <path
     d="m 1.8416005,9.1658585 c 0,0 0.01785,-0.19255 -0.04495,-0.3315 0,0 0.118925,0.0081 0.1389,0.322125 0,0 -0.08328,0.0097 -0.09395,0.0094 m -0.596925,-0.6493 7.5e-4,-0.0059 c 5e-4,0.003 2.49e-4,0.0052 -7.5e-4,0.0059 m 0.11135,0.634375 -0.001,-2.5e-4 0.0015,-0.0037 -2.5e-4,0.0039"
     id="path909"
     inkscape:connector-curvature="0"
     style="fill:#cde9ee;stroke-width:0.025" />
  <path
     d="m 2.8699005,0.71315851 c -0.03805,-0.304525 0.04575,-0.57125 0.04575,-0.57125 -0.921151,0.38825 -1.1647,1.24807499 -1.1647,1.24807499 -0.0609,-0.144625 -0.0685,-0.47299999 -0.0685,-0.47299999 0,0 -0.380675,0.63762499 -0.449175,1.07912499 -0.0685,0.44155 0.0609,1.7091 0.0609,1.7091 0,0 -0.06088,-0.0761 -0.190301,-0.09133 0,0 0.137001,0.15225 0.137001,0.494825 0,0 -0.05327,-0.04567 -0.144625,-0.02283 0,0 0.144625,0.1294 0.159875,0.350175 0,0 -0.1675,0.1142 -0.25885,0.228375 0,0 -0.14465,0.0076 -0.220775,0.03045 0,0 0.121825,0.0685 0.14465,0.129425 0,0 -0.3578,0.365425 -0.5405005,0.6623 0,0 0.1598755,-0.09895 0.2740505,-0.0685 0,0 -0.2512505,0.3045 -0.3349755,0.80695 0,0 0.1218005,-0.06088 0.1751005,-0.03043 0,0 -0.1522505,0.319725 -0.1598755,0.654675 l -0.167475,0.099 0.129425,0.09135 c 0,0 -0.098975,0.411075 -0.121825,0.647075 0,0 0.076125,-0.07613 0.137025,-0.09895 0,0 0.08375,0.1979 0.1979505,0.350175 0.1142,0.15225 0.373049,0.281675 0.5253,0.281675 l 0.01928,-0.0026 c -0.0085,0.05248 -0.01805,0.10475 -0.032,0.156275 -0.002,0.0073 -0.01168,0.01217 -0.01835,0.0075 a 0.478775,0.478775 0 0 0 -0.05445,-0.03275 c -0.05025,-0.0165 -0.08103,0.0049 -0.08103,0.0049 0.0501,0.0125 0.1098,0.1097 0.123375,0.14825 -0.03995,-0.0029 -0.07008,0.0067 -0.109525,0.03095 0.03775,0.005 0.07903,0.0244 0.07903,0.0244 -0.22605,0.0961 -0.26105,0.235475 -0.333,0.33295 0.02227,-0.01255 0.09525,-0.0441 0.09525,-0.0441 -0.06698,0.06258 -0.10275,0.214275 -0.108025,0.264225 -0.0068,0.06455 -0.0064,0.0635 -0.01067,0.115 0.05992,-0.02085 0.08905,-0.0229 0.13755,-0.03453 0.07498,-0.01093 0.28445,-0.03965 0.3614,-0.03165 l -0.01213,0.148 0.0038,-5e-5 c 0.0395,-0.01133 0.0717,-0.0098 0.106925,-0.0136 5e-4,-0.0408 0.0027,-0.08155 0.006,-0.1222 -0.0023,-0.06945 0.0063,-0.1327 0.02048,-0.2032 5e-4,-0.0025 10e-4,-0.0048 0.0015,-0.0072 0.02795,-0.09625 0.07658,-0.15105 0.10815,-0.18475 0.01048,-0.0112 0.01958,-0.02445 0.02738,-0.03805 a 0.384475,0.384475 0 0 0 0.05355,-0.099 c 0.0313,-0.08537 0.01788,-0.273 -0.045,-0.456125 0.0663,0.0954 0.126725,0.179125 0.15535,0.20775 l -0.002,-0.2331 c 0,0 0.1218,0.1217 0.230825,0.213675 0.0525,0.04583 0.117225,0.105425 0.163175,0.129175 0.0034,0.002 0.0063,-0.02005 0.01,0.01337 h -5e-5 c 5e-4,0 10e-4,-0.0066 0.0015,-0.0064 0.06175,0.03463 0.12525,0.06215 0.1847,0.100625 0.0064,0.0041 0.01287,0.0061 0.01912,0.0104 0.0275,0.01895 0.07595,0.04 0.1195,0.06295 l 0.04117,0.486225 c 0.0371,-0.511 0.3283,-1.00035 0.3283,-1.00035 l -0.01067,-0.0032 c -0.0901,-0.02788 -0.74935,-0.25595 -1.13885,-1.07035 -0.02565,-0.05363 0.144625,0.06087 0.144625,0.06087 -0.159875,-0.38825 -0.220775,-1.0125 -0.220775,-1.0125 0.05327,0.04567 0.106575,0.05327 0.106575,0.05327 -0.114175,-0.31975 -0.15985,-0.7156 -0.15985,-1.073425 -0.03045,-1.926025 0.68135,-2.367575 0.68135,-2.367575 -0.1218,-0.04567 -0.251225,-0.04188 -0.251225,-0.04188 0.14085,-0.33875 0.609,-0.81075 0.609,-0.81075 -0.1256,0.0076 -0.616625,0.140825 -0.616625,0.140825 0.4073,-1.06199999 0.8184,-1.34364999 0.8184,-1.34364999 -0.03045,0.255 0.0685,0.52527499 0.0685,0.52527499 0.8831,-1.09244999 1.592625,-1.04149999 1.592625,-1.04149999 0.05263,-0.109575 0.112375,-0.1843 0.112375,-0.1843 -0.951625,0 -1.492,0.7155 -1.492,0.7155 m 2.4962,8.44667499 c 0,0 -0.0086,-0.275975 -0.07135,-0.4149 0,0 0.163675,0.100875 0.16275,0.41965 0,0 -0.0807,-0.0044 -0.0914,-0.0047"
     id="path911"
     inkscape:connector-curvature="0"
     style="fill:#cde9ee;stroke-width:0.025" />
  <path
     d="m 1.1075255,7.7404335 c 0.107825,-1.05595 0.13715,-3.1217 0.13715,-3.1217 -0.234075,0.4625 -0.4225,1.3018 -0.4225,1.3018 l 0.04567,0.1827 -0.10275,-0.04565 c -0.1652,0.57325 -0.05342,1.340625 -0.01642,1.5568 0.105075,0.0832 0.23025,0.11125 0.35885,0.12605 m -0.220825,-0.02283 a 16.664825,16.664825 0 0 0 0.10675,0.499625 c 0.02858,0.0043 0.0607,0.002 0.0607,0.002 0.0262,-0.102075 0.03053,-0.2601 0.0509,-0.454475 -0.07505,-0.0088 -0.1487,-0.02213 -0.21835,-0.04728"
     id="path913"
     inkscape:connector-curvature="0"
     style="fill:#abd8d7;stroke-width:0.025" />
  <path
     d="m 4.4644505,8.6275335 a 0.01115,0.01115 0 0 1 -0.01333,-0.0052 c -0.01182,0.0023 -0.0209,0.0045 -0.027,0.0061 l 2.5e-5,-5e-5 c 0.15705,-0.114275 0.1715,-0.23515 0.1715,-0.23515 -0.1042,0.04698 -0.214801,0.0645 -0.2686,0.0707 0.363025,-0.314675 0.42335,-0.898975 0.42335,-0.898975 -0.1487,0.182525 -0.3597,0.336775 -0.522775,0.4403 l 2.5e-4,-7.5e-4 c 0,0 -0.109251,0.0611 -0.210251,0.108675 a 0.0115,0.0115 0 0 0 -0.01217,0.0057 c -0.05188,0.02405 -0.100251,0.04365 -0.128726,0.0484 0,0 0.08408,0.15525 0.119201,0.238975 l -0.0069,0.0056 c 0,0 0.12165,0.2875 0.165926,0.566 0.0046,0.04707 0.0083,0.0883 0.0108,0.1198 0.002,0.04075 0.005,0.06883 0.005,0.06883 0.16085,-0.0238 0.388025,-5e-4 0.388025,-5e-4 -0.001,0.0262 0.0133,0.0891 0.01595,0.1005 0.07638,-0.0103 0.153426,-0.0148 0.2305,-0.01545 -10e-4,-0.26995 -0.01287,-0.718475 -0.340875,-0.62335"
     id="path915"
     inkscape:connector-curvature="0"
     style="fill:#cde9ee;stroke-width:0.025" />
  <path
     d="m 1.0991005,7.8218585 c -0.252225,-0.04265 -0.481101,-0.3325 -0.481101,-0.3325 0.183901,0.195525 0.412826,0.221725 0.412826,0.221725 0.03022,-0.223325 -0.154376,-0.73445 -0.154376,-0.73445 0.136726,0.17025 0.211501,0.36715 0.252376,0.528325 l -0.02975,0.3169"
     id="path917"
     inkscape:connector-curvature="0"
     style="fill:#83bac0;stroke-width:0.025" />
  <path
     d="m 1.6714755,7.4264585 c 0,0 0.198425,0.3497 0.37255,0.501 0.187949,0.1633 0.362575,0.394 0.4368,0.53385 0,0 0.0942,-0.218825 0.1456,-0.295 0,0 -0.556701,-0.163175 -0.95495,-0.73985 m 2.589724,0.682075 c 0.0276,-0.03882 0.0592,-0.0749 0.0893,-0.11175 0.04938,-0.06045 0.105799,-0.119125 0.14725,-0.184925 -0.07155,0.05355 -0.151225,0.09992 -0.232675,0.14895 -0.2364,0.160175 -0.401075,0.2055 -0.401075,0.2055 0.05138,0.07617 0.145574,0.295 0.145574,0.295 0.04493,-0.08465 0.126751,-0.202575 0.225925,-0.3187 0.0083,-0.01155 0.0176,-0.02263 0.0257,-0.03408"
     id="path919"
     inkscape:connector-curvature="0"
     style="fill:#abd8d7;stroke-width:0.025" />
  <path
     d="m 1.5962255,2.2186085 c -0.02165,0.0015 -0.09093,0.0033 -0.09093,0.0033 -0.627675,0.04383 -1.089025,-0.44255 -1.089025,-0.44255 0,0 -0.04125,0.379675 0.231401,0.712375 0.272749,0.3327 0.825424,0.389625 0.825424,0.389625 0.01795,0.0778 -0.02095,0.2513 -0.02095,0.2513 0,0 0.161624,-0.17875 0.202649,-0.517475 0.02883,-0.23735 -0.04518,-0.397525 -0.05857,-0.396575"
     id="path921"
     inkscape:connector-curvature="0"
     style="fill:#545352;stroke-width:0.025" />
  <path
     d="m 1.5962255,2.2186085 c -0.02083,0.0012 -0.09093,0.0033 -0.09093,0.0033 -0.627675,0.04383 -1.089025,-0.44255 -1.089025,-0.44255 0,0 0.286751,0.82985 1.244376,0.76425 0,0 0.02647,-0.1535 -0.06442,-0.325"
     id="path923"
     inkscape:connector-curvature="0"
     style="fill:#6e7979;stroke-width:0.025" />
  <path
     d="m 4.7300495,2.2186085 c 0.02163,0.0015 0.0909,0.0033 0.0909,0.0033 0.627675,0.04383 1.089025,-0.44255 1.089025,-0.44255 0,0 0.04125,0.379675 -0.231401,0.712375 -0.27275,0.3327 -0.825424,0.389625 -0.825424,0.389625 -0.01795,0.0778 0.02095,0.2513 0.02095,0.2513 0,0 -0.161625,-0.17875 -0.20265,-0.517475 -0.02882,-0.23735 0.0452,-0.397525 0.0586,-0.396575"
     id="path925"
     inkscape:connector-curvature="0"
     style="fill:#545352;stroke-width:0.025" />
  <path
     d="m 4.7300495,2.2186085 c 0.0208,0.0012 0.0909,0.0033 0.0909,0.0033 0.627675,0.04383 1.089025,-0.44255 1.089025,-0.44255 0,0 -0.286751,0.82985 -1.244376,0.76425 0,0 -0.02647,-0.1535 0.06445,-0.325"
     id="path927"
     inkscape:connector-curvature="0"
     style="fill:#6e7979;stroke-width:0.025" />
  <path
     d="m 1.2686005,5.0298335 c 0,0 -0.451175,1.621525 0,2.6607 v -2.6607 m 4.492425,2.565 c -0.2227,0.169925 -0.454376,0.180675 -0.454376,0.180675 -0.01032,-0.222 0.23235,-0.707325 0.23235,-0.707325 a 0.5276,0.5276 0 0 0 -0.136125,0.1153 l -0.0015,-0.162875 0.175075,-0.144625 -0.140799,-0.1142 0.178874,-0.719425 -0.171274,0.1142 c 0,0 -0.05327,-1.0239 -0.01525,-1.46545 0,0 -0.21695,-0.217 -0.3235,-0.304525 0,0 0.02013,0.31525 0.0431,0.81895 0.09725,0.404075 0.24825,1.240275 0.06038,1.975725 0.0023,0.149075 0.0038,0.30045 0.0046,0.4533 0,0 0.09362,0.32525 0.12405,0.553625 0,0 0.03045,0.0086 0.07612,0.001 l -0.0035,-0.34975 c 0.235225,-0.07105 0.35175,-0.244575 0.35175,-0.244575 m -2.1107,-3.13985 c 0,0.17295 0.11075,0.31315 0.247425,0.31315 0.13665,0 0.24745,-0.1402 0.24745,-0.31315 0,-0.173 -0.1108,-0.313175 -0.24745,-0.313175 -0.136675,0 -0.247425,0.1402 -0.247425,0.313175"
     id="path929"
     inkscape:connector-curvature="0"
     style="fill:#cde9ee;stroke-width:0.025" />
  <path
     d="m 3.6579505,4.3713335 c 0,0.170275 0.10905,0.308325 0.243625,0.308325 0.134549,0 0.243625,-0.13805 0.243625,-0.308325 0,-0.1703 -0.109076,-0.308325 -0.243625,-0.308325 -0.134575,0 -0.243625,0.138025 -0.243625,0.308325"
     id="path931"
     inkscape:connector-curvature="0"
     style="fill:#ffffff;stroke-width:0.025" />
  <path
     d="m 3.8368755,4.2123585 a 0.095375,0.095375 0 0 0 -0.0033,0.02385 c 0,0.04343 0.0283,0.07858 0.06318,0.07858 0.03102,0 0.0567,-0.0278 0.06205,-0.06445 0.0199,0.0261 0.03218,0.06125 0.03218,0.10005 0,0.08042 -0.0524,0.1456 -0.11705,0.1456 -0.06462,0 -0.117049,-0.06517 -0.117049,-0.1456 0,-0.06425 0.0335,-0.1187 0.07995,-0.138"
     id="path933"
     inkscape:connector-curvature="0"
     style="fill:#474746;stroke-width:0.025" />
  <path
     d="m 2.4627005,4.4549835 c 0,0.17295 0.110775,0.31315 0.247449,0.31315 0.136651,0 0.247425,-0.1402 0.247425,-0.31315 0,-0.173 -0.110775,-0.313175 -0.247425,-0.313175 -0.136675,0 -0.247449,0.1402 -0.247449,0.313175"
     id="path935"
     inkscape:connector-curvature="0"
     style="fill:#cde9ee;stroke-width:0.025" />
  <path
     d="m 2.4703505,4.3713335 c 0,0.170275 0.10905,0.308325 0.243625,0.308325 0.134549,0 0.243599,-0.13805 0.243599,-0.308325 0,-0.1703 -0.10905,-0.308325 -0.243599,-0.308325 -0.134575,0 -0.243625,0.138025 -0.243625,0.308325"
     id="path937"
     inkscape:connector-curvature="0"
     style="fill:#ffffff;stroke-width:0.025" />
  <path
     d="m 2.6949755,4.2123585 a 0.095375,0.095375 0 0 0 -0.0033,0.02385 c 0,0.04343 0.02828,0.07858 0.06318,0.07858 0.031,0 0.0567,-0.0278 0.06205,-0.06445 0.0199,0.0261 0.03218,0.06125 0.03218,0.10005 0,0.08042 -0.05242,0.1456 -0.11705,0.1456 -0.06465,0 -0.11705,-0.06517 -0.11705,-0.1456 0,-0.06425 0.0335,-0.1187 0.07997,-0.138"
     id="path939"
     inkscape:connector-curvature="0"
     style="fill:#474746;stroke-width:0.025" />
  <path
     d="m 4.5418255,4.7006835 c -0.01553,0.04675 -0.06825,0.05915 -0.218451,0.08817 l -0.01025,0.002 c -0.14715,0.02825 -0.410251,0.02455 -0.554375,0.0035 a 0.770775,0.770775 0 0 1 -0.01792,-0.0027 c -0.133575,-0.0226 -0.148775,-0.0399 -0.191751,-0.109125 -0.04435,-0.07165 -0.07162,-0.28205 -0.07665,-0.323525 l -2.5e-4,-0.002 c -0.0053,-0.04385 -0.008,-0.0658 0.04835,-0.091 0.07575,-0.034 0.41205,-0.08145 0.549825,-0.08765 0.1088,-0.0048 0.3394,0.01035 0.444825,0.02575 0.01655,0.0025 0.02877,0.0046 0.03635,0.0067 0.01215,0.0033 0.0568,0.02495 0.05453,0.07243 -0.003,0.0626 -0.04325,0.354475 -0.06425,0.417625 z m -1.466626,-0.343825 -2.49e-4,0.002 c -0.005,0.0415 -0.0323,0.251875 -0.07667,0.3235 -0.04295,0.06925 -0.05815,0.08655 -0.19175,0.109125 -0.0057,0.001 -0.01168,0.0018 -0.01793,0.0027 -0.144074,0.02107 -0.407199,0.02475 -0.554375,-0.0035 l -0.01022,-0.002 c -0.150201,-0.02903 -0.202925,-0.04145 -0.21845,-0.08817 -0.021,-0.06315 -0.06128,-0.355 -0.06425,-0.417625 -0.0023,-0.0475 0.0424,-0.0692 0.05455,-0.07242 0.0076,-0.002 0.0198,-0.0043 0.03632,-0.0067 0.105451,-0.0154 0.336025,-0.03055 0.444825,-0.02575 0.137801,0.0062 0.474076,0.05365 0.549825,0.08762 0.05635,0.02522 0.0537,0.04717 0.04838,0.09102 z m 1.659501,-0.2779 c -0.110325,-0.01613 -0.3029,-0.0344 -0.53405,-0.02263 -0.3008,0.0155 -0.558525,0.05725 -0.7125,0.08217 -0.04595,0.0075 -0.08207,0.01333 -0.109625,0.017 l -0.03005,0.004 c -0.03378,0.0046 -0.05593,0.0076 -0.0748,0.0085 -0.01885,-0.001 -0.041,-0.0039 -0.07475,-0.0085 l -0.0301,-0.0041 c -0.02752,-0.0037 -0.06365,-0.0095 -0.109625,-0.01698 -0.15395,-0.02492 -0.411675,-0.0667 -0.7125,-0.08217 -0.231124,-0.01178 -0.4237,0.0065 -0.534025,0.02263 0,0 -0.11775,0.015 -0.21845,0.05757 l 0.0192,0.128 c 0,0 0.106399,-0.02535 0.210324,-0.03923 0.0193,0.1805 0.0569,0.412375 0.0569,0.412375 l 4.99e-4,0.0072 c 0.0029,0.0117 0.0055,0.02305 0.0084,0.03543 0.02142,0.09117 0.04267,0.1448 0.128199,0.17695 0.084,0.0317 0.2827,0.06108 0.483125,0.0714 0.07452,0.0038 0.159126,-7.5e-4 0.244675,-0.0132 0.126876,-0.0185 0.24165,-0.05268 0.2855,-0.0851 0.0638,-0.04715 0.09793,-0.1658 0.1205,-0.244325 l 0.0068,-0.02313 c 0.008,-0.02678 0.01492,-0.05487 0.02163,-0.08215 0.0096,-0.03915 0.01957,-0.0796 0.0281,-0.09357 0.0015,-0.0025 0.0087,-0.01088 0.03657,-0.01497 0.0086,-0.0013 0.01833,-0.002 0.029,-0.002 0.01065,1.25e-4 0.02035,7.5e-4 0.029,0.002 0.02785,0.0041 0.035,0.01255 0.03655,0.015 0.0085,0.01395 0.01845,0.0544 0.02807,0.09355 0.0067,0.02725 0.01365,0.05538 0.02165,0.08215 l 0.0068,0.02313 c 0.0226,0.0785 0.05675,0.197175 0.120525,0.244325 0.04385,0.03242 0.1586,0.06658 0.285499,0.0851 0.08553,0.01245 0.17015,0.01705 0.24465,0.0132 0.20045,-0.01032 0.39915,-0.0397 0.48315,-0.0714 0.0855,-0.03215 0.10675,-0.08575 0.1282,-0.17695 0.0029,-0.01238 0.0055,-0.02375 0.0084,-0.03543 l 5e-4,-0.0072 c 0,0 0.03758,-0.2319 0.0569,-0.412375 0.103926,0.01388 0.210325,0.03923 0.210325,0.03923 l 0.0192,-0.128 c -0.1007,-0.0426 -0.21845,-0.05757 -0.21845,-0.05757 z"
     id="path941"
     inkscape:connector-curvature="0"
     style="fill:#545352;stroke-width:0.025" />
  <path
     d="m 2.7865255,3.7548585 c 0,0 -0.2752,-0.13125 -0.432725,0.11245 0,0 -0.01625,-0.24235 0.206,-0.269425 0.222249,-0.02713 0.226725,0.15695 0.226725,0.15695 m -0.103225,-0.356075 c 0,0 -0.255125,-0.1204 -0.37135,0.111 0,0 -0.03798,-0.202175 0.1441,-0.250975 0.182074,-0.0488 0.22725,0.139975 0.22725,0.139975 m 1.089024,0.504675 c 0,0 0.213725,-0.101925 0.33605,0.08735 0,0 0.01262,-0.1882 -0.159974,-0.20925 -0.172625,-0.02105 -0.176076,0.1219 -0.176076,0.1219 m 0.151975,-0.337075 c 0,0 0.216251,-0.03503 0.253301,0.162625 0,0 0.07178,-0.1427 -0.0536,-0.21825 -0.125399,-0.07558 -0.1997,0.0556 -0.1997,0.0556"
     id="path943"
     inkscape:connector-curvature="0"
     style="fill:#a0d1de;stroke-width:0.025" />
  <path
     d="m 2.7673755,5.6747335 c 0,0 0.151,-0.1015 0.240125,-0.11545 0,0 0.01945,0.191475 0.108024,0.285825 0,0 0.19115,-0.172275 0.380176,-0.184525 0,0 0.0488,0.105 0.128,0.143925 l -5e-4,0.0013 c 0.02858,0.01785 0.0636,0.0359 0.09752,0.04342 0,0 0.1085,-0.06565 0.139875,-0.18555 0,0 0.01045,0.253125 -0.14845,0.3911 0,0 -0.12115,-0.05912 -0.208451,-0.153775 -0.02623,-0.02552 -0.0535,-0.05525 -0.0667,-0.07937 0,0 -0.28035,0.198325 -0.290575,0.3114 0,0 -0.202375,-0.197275 -0.271375,-0.3493 0,0 -0.13505,0.04263 -0.172501,0.0701 0,0 -0.108549,-0.177525 -0.130599,-0.33775 0,0 0.13055,0.1247 0.195349,0.158725"
     id="path945"
     inkscape:connector-curvature="0"
     style="fill:#b2dce5;stroke-width:0.025" />
  <path
     d="m 3.2769505,5.1772085 c -0.0112,-0.0025 0.284324,0.02045 0.574525,0.01012 0,0 0.0155,-0.05535 0.03775,-0.08575 0,0 -0.0049,0.09315 0.02125,0.11225 0,0 -0.145225,0.05715 -0.291675,0.05672 0,0 0.159575,-0.02662 0.2131,-0.05417 0,0 -0.2912,0.0162 -0.55495,-0.03918"
     id="path947"
     inkscape:connector-curvature="0"
     style="fill:#545352;stroke-width:0.025" />
</svg>
