<?xml version="1.0" encoding="UTF-8" standalone="no"?>
<!-- Generator: Adobe Illustrator 19.0.0, SVG Export Plug-In . SVG Version: 6.00 Build 0)  -->

<svg
   xmlns:dc="http://purl.org/dc/elements/1.1/"
   xmlns:cc="http://creativecommons.org/ns#"
   xmlns:rdf="http://www.w3.org/1999/02/22-rdf-syntax-ns#"
   xmlns:svg="http://www.w3.org/2000/svg"
   xmlns="http://www.w3.org/2000/svg"
   xmlns:sodipodi="http://sodipodi.sourceforge.net/DTD/sodipodi-0.dtd"
   xmlns:inkscape="http://www.inkscape.org/namespaces/inkscape"
   version="1.1"
   id="Capa_1"
   x="0px"
   y="0px"
   viewBox="0 0 463.001 384.99999"
   xml:space="preserve"
   inkscape:version="0.91 r13725"
   sodipodi:docname="spain-map.svg"
   width="13.066917cm"
   height="10.865556cm"><metadata
     id="metadata61"><rdf:RDF><cc:Work
         rdf:about=""><dc:format>image/svg+xml</dc:format><dc:type
           rdf:resource="http://purl.org/dc/dcmitype/StillImage" /><dc:title></dc:title></cc:Work></rdf:RDF></metadata><defs
     id="defs59" /><sodipodi:namedview
     pagecolor="#ffffff"
     bordercolor="#666666"
     borderopacity="1"
     objecttolerance="10"
     gridtolerance="10"
     guidetolerance="10"
     inkscape:pageopacity="0"
     inkscape:pageshadow="2"
     inkscape:window-width="1307"
     inkscape:window-height="744"
     id="namedview57"
     showgrid="false"
     units="cm"
     inkscape:zoom="0.72085027"
     inkscape:cx="279.22158"
     inkscape:cy="217.06258"
     inkscape:window-x="59"
     inkscape:window-y="24"
     inkscape:window-maximized="1"
     inkscape:current-layer="Capa_1" /><g
     id="g3"
     transform="translate(23.583261,10.783034)"
     style="fill:#084369;fill-opacity:1;stroke:#084369;stroke-opacity:1"><path
       d="m 327.979,199.685 36.833,-66.3 53.644,-22.99 c 2.27,-0.973 3.916,-3.001 4.4,-5.423 l 8,-40 c 0.419,-2.096 -0.076,-4.272 -1.362,-5.98 -1.286,-1.708 -3.239,-2.787 -5.37,-2.964 L 329.123,48.111 242.064,16.453 c -0.616,-0.224 -1.26,-0.367 -1.913,-0.423 l -184,-16 C 54.77,-0.091 53.385,0.175 52.147,0.794 l -48,24 c -3.338,1.669 -4.941,5.539 -3.761,9.08 l 16,48 c 0.935,2.804 3.428,4.797 6.369,5.091 l 70.08,7.008 -12.297,30.744 c -0.238,0.596 -0.399,1.219 -0.479,1.855 l -7.841,62.725 -15.425,30.851 c -0.709,1.417 -0.951,3.023 -0.69,4.587 l 7.512,45.075 -14.354,21.53 c -2.158,3.237 -1.483,7.586 1.555,10.017 l 39.673,31.739 31.665,31.705 c 1.446,1.448 3.368,2.201 5.309,2.2 1.324,0 2.657,-0.35 3.854,-1.067 l 38.601,-23.137 78.33,-7.833 c 2.089,-0.209 3.995,-1.284 5.254,-2.963 l 22.402,-29.87 29.417,-7.354 c 2.812,-0.703 4.967,-2.963 5.536,-5.805 l 7.391,-36.954 21.415,-14.277 c 3.147,-2.098 4.24,-6.211 2.548,-9.594 l -14.232,-28.462 z m -20.638,41.575 c -1.655,1.103 -2.804,2.819 -3.194,4.77 l -7.069,35.346 -27.396,6.849 c -1.671,0.417 -3.147,1.398 -4.181,2.776 l -22.024,29.365 -76.722,7.672 c -1.1,0.11 -2.162,0.462 -3.11,1.03 l -35.017,20.989 -27.821,-27.856 c -0.197,-0.197 -0.404,-0.383 -0.622,-0.557 L 65.555,293.939 77.741,275.66 c 1.057,-1.585 1.471,-3.514 1.158,-5.393 L 71.3,224.673 86.209,194.854 c 0.38,-0.76 0.628,-1.58 0.734,-2.424 l 7.88,-63.042 15.641,-39.103 c 0.875,-2.188 0.671,-4.661 -0.551,-6.676 -1.222,-2.015 -3.321,-3.338 -5.666,-3.573 L 29.08,72.521 16.673,35.3 56.961,15.156 237.867,30.887 324.938,62.549 c 0.625,0.228 1.277,0.371 1.94,0.426 l 87.619,7.302 -5.577,27.885 -52.374,22.446 c -1.527,0.655 -2.794,1.798 -3.602,3.251 l -40,72 c -1.202,2.165 -1.259,4.782 -0.152,6.997 l 13.039,26.078 -18.49,12.326 z"
       id="path5"
       inkscape:connector-curvature="0"
       style="fill:#084369;fill-opacity:1;stroke:#084369;stroke-opacity:1" /></g><g
     id="g27"
     transform="translate(0,-78.001007)" /><g
     id="g29"
     transform="translate(0,-78.001007)" /><g
     id="g31"
     transform="translate(0,-78.001007)" /><g
     id="g33"
     transform="translate(0,-78.001007)" /><g
     id="g35"
     transform="translate(0,-78.001007)" /><g
     id="g37"
     transform="translate(0,-78.001007)" /><g
     id="g39"
     transform="translate(0,-78.001007)" /><g
     id="g41"
     transform="translate(0,-78.001007)" /><g
     id="g43"
     transform="translate(0,-78.001007)" /><g
     id="g45"
     transform="translate(0,-78.001007)" /><g
     id="g47"
     transform="translate(0,-78.001007)" /><g
     id="g49"
     transform="translate(0,-78.001007)" /><g
     id="g51"
     transform="translate(0,-78.001007)" /><g
     id="g53"
     transform="translate(0,-78.001007)" /><g
     id="g55"
     transform="translate(0,-78.001007)" /></svg>