<?xml version="1.0" encoding="UTF-8" standalone="no"?>
<svg xmlns:dc="http://purl.org/dc/elements/1.1/" xmlns:cc="http://creativecommons.org/ns#" xmlns:rdf="http://www.w3.org/1999/02/22-rdf-syntax-ns#"
   xmlns:svg="http://www.w3.org/2000/svg" xmlns="http://www.w3.org/2000/svg" xmlns:sodipodi="http://sodipodi.sourceforge.net/DTD/sodipodi-0.dtd"
   xmlns:inkscape="http://www.inkscape.org/namespaces/inkscape" version="1.1" id="Layer_1" x="0px" y="0px" width="2000px"
   height="503.5px" viewBox="0 0 2000 503.5" enable-background="new 0 0 2000 503.5" xml:space="preserve"
   sodipodi:docname="background-page-title.svg" inkscape:version="0.92.3 (d244b95, 2018-08-02)">
   <metadata id="metadata57">
      <rdf:RDF>
         <cc:Work rdf:about="">
            <dc:format>image/svg+xml</dc:format>
            <dc:type rdf:resource="http://purl.org/dc/dcmitype/StillImage" />
         </cc:Work>
      </rdf:RDF>
   </metadata>
   <defs id="defs55" />
   <sodipodi:namedview pagecolor="#ffffff" bordercolor="#666666" borderopacity="1" objecttolerance="10" gridtolerance="10"
      guidetolerance="10" inkscape:pageopacity="0" inkscape:pageshadow="2" inkscape:window-width="1867"
      inkscape:window-height="1056" id="namedview53" showgrid="false" inkscape:zoom="0.81458701" inkscape:cx="1132.9309"
      inkscape:cy="167.45715" inkscape:window-x="53" inkscape:window-y="24" inkscape:window-maximized="1"
      inkscape:current-layer="Layer_1" />
   <polygon points="1644.5,-21.75 1744.5,-11.75 1804.5,218.25" style="fill:#000000;fill-opacity:0.1" />
   <polygon points="1124.5,-21.75 854.5,198.25 944.5,228.25" style="fill:#000000;fill-opacity:0.05" />
   <polygon points="1434.5,-21.75 1644.5,-21.75 1524.5,158.25" style="fill:#000000;fill-opacity:0.1" />
   <polygon points="1434.5,-21.75 1344.5,138.25 1524.5,158.25" style="fill:#000000;fill-opacity:0.1" />
   <polygon points="1124.5,-21.75 1434.5,-21.75 1344.5,138.25" style="fill:#000000;fill-opacity:0.05" />
   <polyline points="1084.5,148.25 1124.5,-21.75 1344.5,138.25" style="fill:#000000;fill-opacity:0.02" />
   <polygon points="1034.5,268.25 1194.5,58.25 1354.5,288.25" style="fill:#000000;fill-opacity:0.2" />
   <polygon points="1434.5,148.25 1354.5,288.25 1194.5,58.25" style="fill:#000000;fill-opacity:0.1" />
   <polygon points="1434.5,148.25 1534.5,288.25 1354.5,288.25" style="fill:#000000;fill-opacity:0.04" />
   <polygon points="1124.5,-21.75 954.5,198.25 1094.5,158.25" style="fill:#000000;fill-opacity:0.03" />
   <polygon points="1644.5,-21.75 1804.5,218.25 1524.5,158.25" style="fill:#000000;fill-opacity:0.02" />
   <polygon points="1634.5,88.25 1434.5,148.25 1534.5,288.25" style="fill:#000000;fill-opacity:0.1" />
   <polygon points="934.5,218.25 1034.5,278.25 1194.5,58.25" style="fill:#000000;fill-opacity:0.08" />
   <polygon points="1784.5,248.25 1534.5,288.25 1634.5,88.25" style="fill:#000000;fill-opacity:0.1" />
   <polygon points="1044.5,188.25 1344.5,248.25 1244.5,488.25" style="fill:#000000;fill-opacity:0.06" />
   <polygon points="1484.5,518.25 1244.5,488.25 1344.5,248.25" style="fill:#000000;fill-opacity:0.1" />
   <polygon points="1584.5,258.25 1344.5,248.25 1484.5,518.25" style="fill:#000000;fill-opacity:0.04" />
   <polygon points="1744.5,228.25 1484.5,518.25 1584.5,258.25" style="fill:#000000;fill-opacity:0.1" />
   <polygon points="1824.5,538.25 1744.5,228.25 1484.5,518.25" style="fill:#000000;fill-opacity:0.03" />
   <polygon points="884.5,498.25 1044.5,188.25 1244.5,488.25" style="fill:#000000;fill-opacity:0.02" />
   <polygon points="1634.5,88.25 1904.5,228.25 1784.5,278.25" style="fill:#000000;fill-opacity:0.1" />
   <polyline points="884.5,498.25 814.5,178.25 1044.5,188.25" style="fill:#000000;fill-opacity:0.2" />
   <polygon points="624.5,508.25 814.5,178.25 884.5,498.25" style="fill:#000000;fill-opacity:0.1" />
   <polygon points="1904.5,228.25 1744.5,228.25 1824.5,538.25" style="fill:#000000;fill-opacity:0.04" />
   <polygon points="2004.5,528.25 1904.5,228.25 1824.5,538.25" style="fill:#000000;fill-opacity:0.09" />
</svg>